#N canvas 2553 0 2048 1069 12;
#X text 171 277 creation arguments are OSC address;
#X text 173 238 set message to change OSC address;
#X text 144 48 1 Set IP Address : network address;
#X text 144 68 2 Set Ports (sending and listening);
#X text 144 87 3 Set OSC Addresses (routing osc data;
#X text 135 26 Key Settings;
#X floatatom 23 194 5 0 0 0 - - - 0;
#N canvas 430 323 623 462 oscReceive 1;
#X obj 30 130 netreceive -u -b;
#X msg 53 89 listen 0;
#X text 127 89 stop listening;
#X text 39 4 packets from network;
#X text 148 123 UDP packets \, binary output, f 13;
#X obj 20 260 print;
#X obj 20 218 oscparse;
#X text 125 60 listen on port 8000;
#X obj 152 215 oscparse;
#X obj 152 239 list trim;
#X text 216 213 Parse the OSC message;
#X obj 152 265 route unity;
#X msg 41 61 listen 8000;
#X obj 41 30 loadbang;
#X obj 97 301 route coin;
#X floatatom 97 325 5 0 0 0 - - - 0;
#X obj 97 348 s coinTrig;
#X obj 185 325 tgl 19 0 empty empty empty 0 -10 0 12 #fcfcfc #000000 #000000 0 1;
#X obj 185 348 s waterTrig;
#X obj 185 301 route water;
#X obj 374 301 route death;
#X floatatom 374 325 5 0 0 0 - - - 0;
#X obj 374 348 s deathTrig;
#X obj 280 301 route tempo;
#X floatatom 280 325 5 0 0 0 - - - 0;
#X obj 4 348 s masterTrig;
#X obj 4 301 route master;
#X obj 4 325 tgl 19 0 empty empty empty 0 -10 0 12 #fcfcfc #000000 #000000 0 1;
#X floatatom 460 325 5 0 0 0 - - - 0;
#X obj 460 301 route one_timbre;
#X obj 460 348 s One_Timbre;
#X floatatom 460 411 5 0 0 0 - - - 0;
#X obj 460 387 route two_timbre;
#X obj 460 434 s Two_Timbre;
#X floatatom 97 411 5 0 0 0 - - - 0;
#X obj 97 387 route fire;
#X obj 97 434 s fireTrig;
#X obj 185 387 route ground;
#X obj 185 434 s groundTrig;
#X floatatom 185 411 5 0 0 0 - - - 0;
#X obj 280 348 s gameTempo;
#X connect 0 0 6 0;
#X connect 0 0 8 0;
#X connect 1 0 0 0;
#X connect 6 0 5 0;
#X connect 8 0 9 0;
#X connect 9 0 11 0;
#X connect 11 0 14 0;
#X connect 11 0 19 0;
#X connect 11 0 20 0;
#X connect 11 0 23 0;
#X connect 11 0 26 0;
#X connect 11 0 29 0;
#X connect 11 0 32 0;
#X connect 11 0 35 0;
#X connect 11 0 37 0;
#X connect 12 0 0 0;
#X connect 13 0 12 0;
#X connect 14 0 15 0;
#X connect 15 0 16 0;
#X connect 17 0 18 0;
#X connect 19 0 17 0;
#X connect 20 0 21 0;
#X connect 21 0 22 0;
#X connect 23 0 24 0;
#X connect 24 0 40 0;
#X connect 26 0 27 0;
#X connect 27 0 25 0;
#X connect 28 0 30 0;
#X connect 29 0 28 0;
#X connect 31 0 33 0;
#X connect 32 0 31 0;
#X connect 34 0 36 0;
#X connect 35 0 34 0;
#X connect 37 0 39 0;
#X connect 39 0 38 0;
#X restore 27 142 pd oscReceive;
#X obj 27 36 tgl 15 0 empty empty empty 17 7 0 10 #fcfcfc #000000 #000000 0 1;
#X msg 27 61 \; pd dsp \$1;
#X obj 24 278 oscformat PD message;
#X msg 56 239 set PD message;
#N canvas 2591 588 450 300 oscSend 0;
#X msg 158 207 disconnect;
#X obj 61 253 netsend -u -b;
#X obj 59 55 list prepend send;
#X obj 59 80 list trim;
#X msg 150 175 connect 127.0.0.1 8001;
#X obj 59 29 r oscOut;
#X text 301 163 send to port 8001;
#X msg 147 148 connect localhost 8001;
#X obj 147 108 loadbang;
#X connect 0 0 1 0;
#X connect 2 0 3 0;
#X connect 3 0 1 0;
#X connect 4 0 1 0;
#X connect 5 0 2 0;
#X connect 7 0 1 0;
#X connect 8 0 7 0;
#X restore 27 118 pd oscSend;
#X obj 24 313 s oscOut;
#X obj 200 475 loadbang;
#X msg 200 499 375;
#X floatatom 200 523 5 0 0 0 - - - 0;
#X obj 161 547 metro, f 6;
#X obj 161 510 tgl 32 0 empty empty empty 0 -10 0 12 #fcfcfc #000000 #000000 0 1;
#X obj 91 554 sel 0;
#X obj 24 554 loadbang;
#X msg 91 616 -1;
#X obj 91 593 bng 19 250 50 0 empty empty empty 0 -10 0 12 #fcfcfc #000000 #000000;
#X obj 161 571 bng 19 250 50 0 empty empty empty 0 -10 0 12 #fcfcfc #000000 #000000;
#X obj 161 647 int 1;
#X obj 225 670 + 1;
#X floatatom 161 671 5 0 0 0 - - - 0;
#X obj 161 694 % 8;
#X obj 161 718 + 1;
#X floatatom 161 742 5 0 0 0 - - - 0;
#X text 114 593 Reset;
#X obj 530 41 receive One;
#X obj 530 65 bng 19 250 50 0 empty empty empty 0 -10 0 12 #fcfcfc #000000 #000000;
#X obj 615 65 bng 19 250 50 0 empty empty empty 0 -10 0 12 #fcfcfc #000000 #000000;
#X obj 700 65 bng 19 250 50 0 empty empty empty 0 -10 0 12 #fcfcfc #000000 #000000;
#X obj 799 65 bng 19 250 50 0 empty empty empty 0 -10 0 12 #fcfcfc #000000 #000000;
#X obj 891 65 bng 19 250 50 0 empty empty empty 0 -10 0 12 #fcfcfc #000000 #000000;
#X obj 615 41 receive Two;
#X obj 700 41 receive Three;
#X obj 799 41 receive Four;
#X obj 891 41 receive Five;
#X obj 983 65 bng 19 250 50 0 empty empty empty 0 -10 0 12 #fcfcfc #000000 #000000;
#X obj 1068 65 bng 19 250 50 0 empty empty empty 0 -10 0 12 #fcfcfc #000000 #000000;
#X obj 1168 65 bng 19 250 50 0 empty empty empty 0 -10 0 12 #fcfcfc #000000 #000000;
#X obj 983 41 receive Six;
#X obj 1069 41 receive Seven;
#X obj 1168 41 receive Eight;
#X text 41 846 Send Objects;
#X text 104 671 Counter;
#X obj 1410 1281 *~;
#X obj 1409 1364 dac~;
#X obj 1439 1111 vsl 19 162 0 0.1 0 0 empty empty empty 0 -9 0 12 #fcfcfc #000000 #000000 0 1;
#X floatatom 1439 1281 5 0 0 0 - - - 0;
#X obj 1312 962 bng 19 250 50 0 empty empty empty 0 -10 0 12 #fcfcfc #000000 #000000;
#X obj 161 765 select 0 1 2 3 4 5 6 7 8;
#X obj 43 798 bng 19 250 50 0 empty empty empty 0 -10 0 12 #fcfcfc #000000 #000000;
#X obj 43 822 s One;
#X obj 100 798 bng 19 250 50 0 empty empty empty 0 -10 0 12 #fcfcfc #000000 #000000;
#X obj 100 822 s Two;
#X obj 155 798 bng 19 250 50 0 empty empty empty 0 -10 0 12 #fcfcfc #000000 #000000;
#X obj 155 822 s Three;
#X obj 214 798 bng 19 250 50 0 empty empty empty 0 -10 0 12 #fcfcfc #000000 #000000;
#X obj 214 822 s Four;
#X obj 272 798 bng 19 250 50 0 empty empty empty 0 -10 0 12 #fcfcfc #000000 #000000;
#X obj 330 798 bng 19 250 50 0 empty empty empty 0 -10 0 12 #fcfcfc #000000 #000000;
#X obj 390 798 bng 19 250 50 0 empty empty empty 0 -10 0 12 #fcfcfc #000000 #000000;
#X obj 449 798 bng 19 250 50 0 empty empty empty 0 -10 0 12 #fcfcfc #000000 #000000;
#X obj 272 822 s Five;
#X obj 330 822 s Six;
#X obj 390 822 s Seven;
#X obj 449 822 s Eight;
#X text 228 499 Wait (ms);
#X text 115 477 Start/Stop \; Main Clock;
#X obj 1409 1328 *~ 0;
#N canvas 0 50 450 250 (subpatch) 0;
#X array output_three 200 float 1;
#A 0 0 0 0 0 0 0 0 0 0 0 0 0 0 0 0 0 0 0 0 0 0 0 0 0 0 0 0 0 0 0 0 0 0 0 0 0 0 0 0 0 0 0 0 0 0 0 0 0 0 0 0 0 0 0 0 0 0 0 0 0 0 0 0 0 0 0 0 0 0 0 0 0 0 0 0 0 0 0 0 0 0 0 0 0 0 0 0 0 0 0 0 0 0 0 0 0 0 0 0 0 0 0 0 0 0 0 0 0 0 0 0 0 0 0 0 0 0 0 0 0 0 0 0 0 0 0 0 0 0 0 0 0 0 0 0 0 0 0 0 0 0 0 0 0 0 0 0 0 0 0 0 0 0 0 0 0 0 0 0 0 0 0 0 0 0 0 0 0 0 0 0 0 0 0 0 0 0 0 0 0 0 0 0 0 0 0 0 0 0 0 0 0 0 0 0 0 0 0 0 0;
#X coords 0 5 199 -5 470 155 1 0 0;
#X restore 1283 401 graph;
#X obj 530 221 receive One;
#X obj 530 245 bng 19 250 50 0 empty empty empty 0 -10 0 12 #fcfcfc #000000 #000000;
#X obj 530 282 spigot;
#X obj 530 306 bng 19 250 50 0 empty empty empty 0 -10 0 12 #fcfcfc #000000 #000000;
#X obj 569 245 tgl 32 0 empty empty empty 0 -10 0 12 #fcfcfc #000000 #000000 0 1;
#X obj 615 245 bng 19 250 50 0 empty empty empty 0 -10 0 12 #fcfcfc #000000 #000000;
#X obj 615 282 spigot;
#X obj 615 306 bng 19 250 50 0 empty empty empty 0 -10 0 12 #fcfcfc #000000 #000000;
#X obj 654 245 tgl 32 0 empty empty empty 0 -10 0 12 #fcfcfc #000000 #000000 0 1;
#X obj 700 245 bng 19 250 50 0 empty empty empty 0 -10 0 12 #fcfcfc #000000 #000000;
#X obj 700 282 spigot;
#X obj 700 306 bng 19 250 50 0 empty empty empty 0 -10 0 12 #fcfcfc #000000 #000000;
#X obj 739 245 tgl 32 0 empty empty empty 0 -10 0 12 #fcfcfc #000000 #000000 0 1;
#X obj 799 245 bng 19 250 50 0 empty empty empty 0 -10 0 12 #fcfcfc #000000 #000000;
#X obj 799 282 spigot;
#X obj 799 306 bng 19 250 50 0 empty empty empty 0 -10 0 12 #fcfcfc #000000 #000000;
#X obj 838 245 tgl 32 0 empty empty empty 0 -10 0 12 #fcfcfc #000000 #000000 0 1;
#X obj 891 245 bng 19 250 50 0 empty empty empty 0 -10 0 12 #fcfcfc #000000 #000000;
#X obj 891 282 spigot;
#X obj 891 306 bng 19 250 50 0 empty empty empty 0 -10 0 12 #fcfcfc #000000 #000000;
#X obj 930 245 tgl 32 0 empty empty empty 0 -10 0 12 #fcfcfc #000000 #000000 0 1;
#X obj 615 221 receive Two;
#X obj 700 221 receive Three;
#X obj 799 221 receive Four;
#X obj 891 221 receive Five;
#X obj 983 245 bng 19 250 50 0 empty empty empty 0 -10 0 12 #fcfcfc #000000 #000000;
#X obj 983 282 spigot;
#X obj 983 306 bng 19 250 50 0 empty empty empty 0 -10 0 12 #fcfcfc #000000 #000000;
#X obj 1022 245 tgl 32 0 empty empty empty 0 -10 0 12 #fcfcfc #000000 #000000 0 1;
#X obj 1068 245 bng 19 250 50 0 empty empty empty 0 -10 0 12 #fcfcfc #000000 #000000;
#X obj 1068 282 spigot;
#X obj 1068 306 bng 19 250 50 0 empty empty empty 0 -10 0 12 #fcfcfc #000000 #000000;
#X obj 1107 245 tgl 32 0 empty empty empty 0 -10 0 12 #fcfcfc #000000 #000000 0 1;
#X obj 1168 245 bng 19 250 50 0 empty empty empty 0 -10 0 12 #fcfcfc #000000 #000000;
#X obj 1168 282 spigot;
#X obj 1168 306 bng 19 250 50 0 empty empty empty 0 -10 0 12 #fcfcfc #000000 #000000;
#X obj 1207 245 tgl 32 0 empty empty empty 0 -10 0 12 #fcfcfc #000000 #000000 0 1;
#X obj 983 221 receive Six;
#X obj 1069 221 receive Seven;
#X obj 1168 221 receive Eight;
#X obj 530 401 receive One;
#X obj 530 425 bng 19 250 50 0 empty empty empty 0 -10 0 12 #fcfcfc #000000 #000000;
#X obj 615 425 bng 19 250 50 0 empty empty empty 0 -10 0 12 #fcfcfc #000000 #000000;
#X obj 700 425 bng 19 250 50 0 empty empty empty 0 -10 0 12 #fcfcfc #000000 #000000;
#X obj 799 425 bng 19 250 50 0 empty empty empty 0 -10 0 12 #fcfcfc #000000 #000000;
#X obj 891 425 bng 19 250 50 0 empty empty empty 0 -10 0 12 #fcfcfc #000000 #000000;
#X obj 615 401 receive Two;
#X obj 700 401 receive Three;
#X obj 799 401 receive Four;
#X obj 891 401 receive Five;
#X obj 983 425 bng 19 250 50 0 empty empty empty 0 -10 0 12 #fcfcfc #000000 #000000;
#X obj 1068 425 bng 19 250 50 0 empty empty empty 0 -10 0 12 #fcfcfc #000000 #000000;
#X obj 1168 425 bng 19 250 50 0 empty empty empty 0 -10 0 12 #fcfcfc #000000 #000000;
#X obj 983 401 receive Six;
#X obj 1069 401 receive Seven;
#X obj 1168 401 receive Eight;
#X obj 799 171 send Channel_One;
#X obj 800 351 send Channel_Two;
#X obj 799 531 send Channel_Three;
#X obj 1332 1386 tabwrite~ output_three;
#X text 528 17 Pulse Wave 1;
#X text 528 197 Pulse Wave 2;
#X text 528 377 Triangle Wave;
#X obj 422 1289 *~;
#X obj 421 1372 dac~;
#X obj 456 1145 vsl 19 162 0 0.1 0 0 empty empty empty 0 -9 0 12 #fcfcfc #000000 #000000 0 1;
#X floatatom 456 1314 5 0 0 0 - - - 0;
#X obj 324 950 bng 19 250 50 0 empty empty empty 0 -10 0 12 #fcfcfc #000000 #000000;
#X obj 421 1336 *~ 0;
#N canvas 0 50 450 250 (subpatch) 0;
#X array output_one 200 float 1;
#A 0 0 0 0 0 0 0 0 0 0 0 0 0 0 0 0 0 0 0 0 0 0 0 0 0 0 0 0 0 0 0 0 0 0 0 0 0 0 0 0 0 0 0 0 0 0 0 0 0 0 0 0 0 0 0 0 0 0 0 0 0 0 0 0 0 0 0 0 0 0 0 0 0 0 0 0 0 0 0 0 0 0 0 0 0 0 0 0 0 0 0 0 0 0 0 0 0 0 0 0 0 0 0 0 0 0 0 0 0 0 0 0 0 0 0 0 0 0 0 0 0 0 0 0 0 0 0 0 0 0 0 0 0 0 0 0 0 0 0 0 0 0 0 0 0 0 0 0 0 0 0 0 0 0 0 0 0 0 0 0 0 0 0 0 0 0 0 0 0 0 0 0 0 0 0 0 0 0 0 0 0 0 0 0 0 0 0 0 0 0 0 0 0 0 0 0 0 0 0 0 0;
#X coords 0 5 199 -5 470 155 1 0 0;
#X restore 1283 41 graph;
#X obj 25 398 bng 19 250 50 0 empty empty empty 0 -10 0 12 #fcfcfc #000000 #000000;
#X obj 25 352 tgl 19 0 empty empty empty 0 -10 0 12 #fcfcfc #000000 #000000 0 1;
#X obj 344 1394 tabwrite~ output_one;
#N canvas 0 50 450 250 (subpatch) 0;
#X array output_two 200 float 1;
#A 0 0 0 0 0 0 0 0 0 0 0 0 0 0 0 0 0 0 0 0 0 0 0 0 0 0 0 0 0 0 0 0 0 0 0 0 0 0 0 0 0 0 0 0 0 0 0 0 0 0 0 0 0 0 0 0 0 0 0 0 0 0 0 0 0 0 0 0 0 0 0 0 0 0 0 0 0 0 0 0 0 0 0 0 0 0 0 0 0 0 0 0 0 0 0 0 0 0 0 0 0 0 0 0 0 0 0 0 0 0 0 0 0 0 0 0 0 0 0 0 0 0 0 0 0 0 0 0 0 0 0 0 0 0 0 0 0 0 0 0 0 0 0 0 0 0 0 0 0 0 0 0 0 0 0 0 0 0 0 0 0 0 0 0 0 0 0 0 0 0 0 0 0 0 0 0 0 0 0 0 0 0 0 0 0 0 0 0 0 0 0 0 0 0 0 0 0 0 0 0 0;
#X coords 0 5 199 -5 470 155 1 0 0;
#X restore 1283 221 graph;
#N canvas 0 50 450 250 (subpatch) 0;
#X array output_four 200 float 1;
#A 0 0 0 0 0 0 0 0 0 0 0 0 0 0 0 0 0 0 0 0 0 0 0 0 0 0 0 0 0 0 0 0 0 0 0 0 0 0 0 0 0 0 0 0 0 0 0 0 0 0 0 0 0 0 0 0 0 0 0 0 0 0 0 0 0 0 0 0 0 0 0 0 0 0 0 0 0 0 0 0 0 0 0 0 0 0 0 0 0 0 0 0 0 0 0 0 0 0 0 0 0 0 0 0 0 0 0 0 0 0 0 0 0 0 0 0 0 0 0 0 0 0 0 0 0 0 0 0 0 0 0 0 0 0 0 0 0 0 0 0 0 0 0 0 0 0 0 0 0 0 0 0 0 0 0 0 0 0 0 0 0 0 0 0 0 0 0 0 0 0 0 0 0 0 0 0 0 0 0 0 0 0 0 0 0 0 0 0 0 0 0 0 0 0 0 0 0 0 0 0 0;
#X coords 0 5 199 -5 470 155 1 0 0;
#X restore 1283 581 graph;
#X obj 324 926 receive Channel_One;
#X obj 1013 1250 *~;
#X obj 1012 1333 dac~;
#X obj 1049 1107 vsl 19 162 0 0.1 0 0 empty empty empty 0 -9 0 12 #fcfcfc #000000 #000000 0 1;
#X floatatom 1049 1276 5 0 0 0 - - - 0;
#X obj 915 911 bng 19 250 50 0 empty empty empty 0 -10 0 12 #fcfcfc #000000 #000000;
#X obj 1012 1297 *~ 0;
#X obj 935 1355 tabwrite~ output_two;
#X obj 1829 368 *~;
#X obj 1894 455 dac~;
#X obj 1919 228 vsl 19 162 0 0.1 0 0 empty empty empty 0 -9 0 12 #fcfcfc #000000 #000000 0 1;
#X floatatom 1919 398 5 0 0 0 - - - 0;
#X obj 1774 72 bng 19 250 50 0 empty empty empty 0 -10 0 12 #fcfcfc #000000 #000000;
#X obj 1894 419 *~ 0;
#X obj 1794 477 tabwrite~ output_four;
#X text 481 1294 Volume;
#X text 1074 1249 Volume;
#X text 1464 1260 Volume;
#X text 1944 377 Volume;
#X obj 1780 117 noise~;
#X obj 1321 1131 * -1;
#X obj 1321 1191 *~ 2;
#X obj 1321 1215 -~ 1;
#X obj 1321 1239 clip~ 0 1;
#X obj 1321 1263 +~;
#X obj 1249 1167 phasor~;
#X obj 1321 1167 phasor~;
#X obj 1249 1191 *~ 2;
#X obj 1249 1215 -~ 1;
#X obj 1249 1239 clip~ 0 1;
#X msg 1358 1131 0;
#X floatatom 1249 1024 5 0 0 0 - - - 0;
#X obj 1249 1047 + 1;
#X floatatom 1249 1071 5 0 0 0 - - - 0;
#X obj 25 480 r masterTrig;
#X obj 155 1136 * -1;
#X obj 179 1038 bng 15 250 50 0 empty wave1 empty 17 7 0 10 #fcfcfc #000000 #000000;
#X obj 99 1230 +~;
#X obj 110 1263 -~ 1;
#X obj 44 1187 phasor~;
#X msg 79 1142 0;
#X obj 152 1183 phasor~;
#X obj 44 1083 * 1;
#X obj 166 990 loadbang;
#X floatatom 44 1060 5 0 0 0 - - - 0;
#X text 82 1062 Frequency;
#X text 181 1014 Change Duty Cycle to adjust timbre;
#X obj 44 895 int;
#X obj 123 896 + 1;
#X floatatom 44 919 5 0 0 0 - - - 0;
#X obj 44 942 % 4;
#X floatatom 44 966 5 0 0 0 - - - 0;
#X obj 44 989 + 1;
#X floatatom 44 1013 5 0 0 0 - - - 0;
#X obj 44 1036 * 80;
#X obj 742 1097 * -1;
#X obj 766 1003 bng 15 250 50 0 empty wave1 empty 17 7 0 10 #fcfcfc #000000 #000000;
#X obj 686 1191 +~;
#X obj 697 1224 -~ 1;
#X obj 631 1148 phasor~;
#X msg 666 1103 0;
#X obj 739 1144 phasor~;
#X obj 631 1044 * 1;
#X obj 753 955 loadbang;
#X floatatom 631 1021 5 0 0 0 - - - 0;
#X text 669 1023 Frequency;
#X text 768 979 Change Duty Cycle to adjust timbre;
#X floatatom 631 974 5 0 0 0 - - - 0;
#X obj 631 997 * 80;
#X obj 25 420 s tabwrite;
#X obj 344 1372 r tabwrite;
#X obj 935 1333 r tabwrite;
#X obj 1332 1364 r tabwrite;
#X obj 1817 455 r tabwrite;
#X text 48 352 Write output;
#X obj 25 375 metro 10;
#X obj 1016 999 vline~;
#X obj 429 1034 vline~;
#X obj 1868 136 vline~;
#X obj 1374 1032 vline~;
#X msg 1374 980 5 50 \, 0 100 75;
#X msg 1868 84 0.5 10 \, 0 100 75;
#X msg 429 1003 1 25 \, 0 100 75;
#X msg 1016 963 1 25 \, 0 100 75;
#X obj 323 1034 r One_Timbre;
#X obj 903 999 r Two_Timbre;
#X floatatom 218 1078 5 0 0 0 - - - 0;
#N canvas 0 50 450 250 (subpatch) 0;
#X array output_five 200 float 1;
#A 0 0 0 0 0 0 0 0 0 0 0 0 0 0 0 0 0 0 0 0 0 0 0 0 0 0 0 0 0 0 0 0 0 0 0 0 0 0 0 0 0 0 0 0 0 0 0 0 0 0 0 0 0 0 0 0 0 0 0 0 0 0 0 0 0 0 0 0 0 0 0 0 0 0 0 0 0 0 0 0 0 0 0 0 0 0 0 0 0 0 0 0 0 0 0 0 0 0 0 0 0 0 0 0 0 0 0 0 0 0 0 0 0 0 0 0 0 0 0 0 0 0 0 0 0 0 0 0 0 0 0 0 0 0 0 0 0 0 0 0 0 0 0 0 0 0 0 0 0 0 0 0 0 0 0 0 0 0 0 0 0 0 0 0 0 0 0 0 0 0 0 0 0 0 0 0 0 0 0 0 0 0 0 0 0 0 0 0 0 0 0 0 0 0 0 0 0 0 0 0 0;
#X coords 0 5 199 -5 470 155 1 0 0;
#X restore 1283 761 graph;
#X obj 1930 897 dac~;
#X obj 1955 668 vsl 19 162 0 0.1 0 0 empty empty empty 0 -9 0 12 #fcfcfc #000000 #000000 0 1;
#X floatatom 1955 838 5 0 0 0 - - - 0;
#X obj 1832 542 bng 19 250 50 0 empty empty empty 0 -10 0 12 #fcfcfc #000000 #000000;
#X obj 1930 861 *~ 0;
#X obj 1775 897 tabwrite~ output_five;
#X text 1905 747 Volume;
#X obj 1775 875 r tabwrite;
#X obj 1765 595 readsf~;
#X obj 1904 596 vline~;
#X obj 1832 726 *~;
#X msg 1904 571 20 50 \, 0 100 75;
#X floatatom 816 1039 5 0 0 0 - - - 0;
#X msg 1765 570 open shoot.wav \, 1;
#X text 1775 519 Samples;
#X text 1868 49 Noise;
#X obj 1955 596 loadbang;
#X obj 1955 620 bng 19 250 50 0 empty empty empty 0 -10 0 12 #fcfcfc #000000 #000000;
#X obj 1832 518 r fireTrig;
#X obj 1439 1038 loadbang;
#X obj 1439 1062 bng 19 250 50 0 empty empty empty 0 -10 0 12 #fcfcfc #000000 #000000;
#X obj 1049 1034 loadbang;
#X obj 1049 1058 bng 19 250 50 0 empty empty empty 0 -10 0 12 #fcfcfc #000000 #000000;
#X msg 1049 1082 0.1;
#X msg 1439 1086 0.1;
#X obj 1919 154 loadbang;
#X obj 1919 178 bng 19 250 50 0 empty empty empty 0 -10 0 12 #fcfcfc #000000 #000000;
#X msg 1919 202 0.1;
#X msg 1955 644 0.025;
#X obj 456 1071 loadbang;
#X obj 456 1095 bng 19 250 50 0 empty empty empty 0 -10 0 12 #fcfcfc #000000 #000000;
#X msg 456 1119 0.1;
#X obj 1249 1094 * 90;
#X obj 1249 1000 random 10;
#X obj 1774 48 r groundTrig;
#X text 1424 937 Triangle;
#X obj 1312 937 r Channel_Three;
#X text 40 872 Adjusts timbre as game multiplier increases;
#X text 242 524 Increase tempo as game multiplier increases;
#X obj 631 926 random 5;
#X obj 631 950 + 1;
#X obj 915 887 receive deathTrig;
#X obj 299 498 r gameTempo;
#X connect 6 0 10 0;
#X connect 8 0 9 0;
#X connect 10 0 13 0;
#X connect 11 0 10 0;
#X connect 14 0 15 0;
#X connect 15 0 16 0;
#X connect 16 0 17 1;
#X connect 17 0 23 0;
#X connect 18 0 19 0;
#X connect 18 0 17 0;
#X connect 19 0 22 0;
#X connect 20 0 22 0;
#X connect 21 0 24 0;
#X connect 22 0 21 0;
#X connect 23 0 24 0;
#X connect 24 0 25 0;
#X connect 24 0 26 0;
#X connect 25 0 24 1;
#X connect 26 0 27 0;
#X connect 27 0 28 0;
#X connect 28 0 29 0;
#X connect 29 0 54 0;
#X connect 31 0 32 0;
#X connect 32 0 131 0;
#X connect 33 0 131 0;
#X connect 35 0 131 0;
#X connect 37 0 33 0;
#X connect 38 0 34 0;
#X connect 39 0 35 0;
#X connect 40 0 36 0;
#X connect 41 0 131 0;
#X connect 42 0 131 0;
#X connect 44 0 41 0;
#X connect 45 0 42 0;
#X connect 46 0 43 0;
#X connect 49 0 73 0;
#X connect 49 0 134 0;
#X connect 51 0 52 0;
#X connect 52 0 73 1;
#X connect 53 0 230 0;
#X connect 53 0 271 0;
#X connect 54 1 55 0;
#X connect 54 2 57 0;
#X connect 54 3 59 0;
#X connect 54 4 61 0;
#X connect 54 5 63 0;
#X connect 54 6 64 0;
#X connect 54 7 65 0;
#X connect 54 8 66 0;
#X connect 55 0 56 0;
#X connect 57 0 58 0;
#X connect 59 0 60 0;
#X connect 61 0 62 0;
#X connect 63 0 67 0;
#X connect 64 0 68 0;
#X connect 65 0 69 0;
#X connect 66 0 70 0;
#X connect 73 0 50 0;
#X connect 73 0 50 1;
#X connect 75 0 76 0;
#X connect 76 0 77 0;
#X connect 77 0 78 0;
#X connect 78 0 132 0;
#X connect 79 0 77 1;
#X connect 80 0 81 0;
#X connect 81 0 82 0;
#X connect 82 0 132 0;
#X connect 83 0 81 1;
#X connect 84 0 85 0;
#X connect 85 0 86 0;
#X connect 86 0 132 0;
#X connect 87 0 85 1;
#X connect 88 0 89 0;
#X connect 89 0 90 0;
#X connect 90 0 132 0;
#X connect 91 0 89 1;
#X connect 92 0 93 0;
#X connect 93 0 94 0;
#X connect 94 0 132 0;
#X connect 95 0 93 1;
#X connect 96 0 80 0;
#X connect 97 0 84 0;
#X connect 98 0 88 0;
#X connect 99 0 92 0;
#X connect 100 0 101 0;
#X connect 101 0 102 0;
#X connect 102 0 132 0;
#X connect 103 0 101 1;
#X connect 104 0 105 0;
#X connect 105 0 106 0;
#X connect 106 0 132 0;
#X connect 107 0 105 1;
#X connect 108 0 109 0;
#X connect 109 0 110 0;
#X connect 110 0 132 0;
#X connect 111 0 109 1;
#X connect 112 0 100 0;
#X connect 113 0 104 0;
#X connect 114 0 108 0;
#X connect 115 0 116 0;
#X connect 116 0 133 0;
#X connect 118 0 133 0;
#X connect 120 0 133 0;
#X connect 121 0 117 0;
#X connect 122 0 118 0;
#X connect 123 0 119 0;
#X connect 124 0 120 0;
#X connect 126 0 133 0;
#X connect 127 0 133 0;
#X connect 128 0 125 0;
#X connect 129 0 126 0;
#X connect 130 0 127 0;
#X connect 138 0 143 0;
#X connect 138 0 147 0;
#X connect 140 0 141 0;
#X connect 141 0 143 1;
#X connect 142 0 232 0;
#X connect 142 0 197 0;
#X connect 143 0 139 0;
#X connect 143 0 139 1;
#X connect 145 0 219 0;
#X connect 146 0 225 0;
#X connect 150 0 142 0;
#X connect 151 0 156 0;
#X connect 151 0 157 0;
#X connect 153 0 154 0;
#X connect 154 0 156 1;
#X connect 155 0 233 0;
#X connect 155 0 277 0;
#X connect 156 0 152 0;
#X connect 156 0 152 1;
#X connect 158 0 163 0;
#X connect 158 0 164 0;
#X connect 160 0 161 0;
#X connect 161 0 163 1;
#X connect 162 0 231 0;
#X connect 163 0 159 0;
#X connect 163 0 159 1;
#X connect 169 0 158 0;
#X connect 170 0 176 0;
#X connect 171 0 172 0;
#X connect 172 0 173 0;
#X connect 173 0 174 1;
#X connect 174 0 49 0;
#X connect 175 0 177 0;
#X connect 176 0 171 0;
#X connect 177 0 178 0;
#X connect 178 0 179 0;
#X connect 179 0 174 0;
#X connect 180 0 175 1;
#X connect 180 0 176 1;
#X connect 181 0 182 0;
#X connect 182 0 183 0;
#X connect 183 0 270 0;
#X connect 184 0 18 0;
#X connect 184 0 15 0;
#X connect 185 0 191 0;
#X connect 186 0 190 0;
#X connect 186 0 236 0;
#X connect 187 0 188 0;
#X connect 188 0 138 0;
#X connect 189 0 187 0;
#X connect 190 0 189 1;
#X connect 191 0 187 1;
#X connect 192 0 189 0;
#X connect 192 0 185 0;
#X connect 193 0 186 0;
#X connect 194 0 192 0;
#X connect 197 0 198 0;
#X connect 197 0 199 0;
#X connect 198 0 197 1;
#X connect 199 0 200 0;
#X connect 200 0 201 0;
#X connect 201 0 202 0;
#X connect 202 0 203 0;
#X connect 203 0 204 0;
#X connect 204 0 194 0;
#X connect 205 0 211 0;
#X connect 206 0 210 0;
#X connect 206 0 250 0;
#X connect 207 0 208 0;
#X connect 208 0 151 0;
#X connect 209 0 207 0;
#X connect 210 0 209 1;
#X connect 211 0 207 1;
#X connect 212 0 209 0;
#X connect 212 0 205 0;
#X connect 213 0 206 0;
#X connect 214 0 212 0;
#X connect 217 0 218 0;
#X connect 218 0 214 0;
#X connect 220 0 147 0;
#X connect 221 0 157 0;
#X connect 222 0 134 0;
#X connect 223 0 164 0;
#X connect 225 0 145 0;
#X connect 226 0 151 1;
#X connect 227 0 138 1;
#X connect 228 0 158 1;
#X connect 229 0 49 1;
#X connect 230 0 229 0;
#X connect 231 0 228 0;
#X connect 232 0 227 0;
#X connect 233 0 226 0;
#X connect 234 0 186 0;
#X connect 234 0 236 0;
#X connect 235 0 206 0;
#X connect 235 0 250 0;
#X connect 236 0 185 1;
#X connect 239 0 240 0;
#X connect 240 0 242 1;
#X connect 241 0 251 0;
#X connect 241 0 249 0;
#X connect 242 0 238 0;
#X connect 242 0 238 1;
#X connect 245 0 243 0;
#X connect 246 0 248 0;
#X connect 247 0 248 1;
#X connect 248 0 242 0;
#X connect 248 0 243 0;
#X connect 249 0 247 0;
#X connect 250 0 205 1;
#X connect 251 0 246 0;
#X connect 254 0 255 0;
#X connect 255 0 266 0;
#X connect 256 0 241 0;
#X connect 257 0 258 0;
#X connect 258 0 262 0;
#X connect 259 0 260 0;
#X connect 260 0 261 0;
#X connect 261 0 153 0;
#X connect 262 0 51 0;
#X connect 263 0 264 0;
#X connect 264 0 265 0;
#X connect 265 0 160 0;
#X connect 266 0 239 0;
#X connect 267 0 268 0;
#X connect 268 0 269 0;
#X connect 269 0 140 0;
#X connect 270 0 175 0;
#X connect 270 0 170 0;
#X connect 271 0 181 0;
#X connect 272 0 162 0;
#X connect 274 0 53 0;
#X connect 277 0 278 0;
#X connect 278 0 217 0;
#X connect 279 0 155 0;
#X connect 280 0 16 0;
