#N canvas 2553 0 2048 1069 12;
#X text 171 277 creation arguments are OSC address;
#X text 173 238 set message to change OSC address;
#X text 144 48 1 Set IP Address : network address;
#X text 144 68 2 Set Ports (sending and listening);
#X text 144 87 3 Set OSC Addresses (routing osc data;
#X text 135 26 Key Settings;
#X floatatom 23 194 5 0 0 0 - - - 0;
#N canvas 1762 415 623 462 oscReceive 1;
#X obj 30 130 netreceive -u -b;
#X msg 53 89 listen 0;
#X text 127 89 stop listening;
#X text 39 4 packets from network;
#X text 148 123 UDP packets \, binary output, f 13;
#X obj 20 260 print;
#X obj 20 218 oscparse;
#X text 125 60 listen on port 8000;
#X obj 152 215 oscparse;
#X obj 152 239 list trim;
#X text 216 213 Parse the OSC message;
#X obj 152 265 route unity;
#X msg 41 61 listen 8000;
#X obj 41 30 loadbang;
#X obj 97 301 route coin;
#X floatatom 97 325 5 0 0 0 - - - 0;
#X obj 97 348 s coinTrig;
#X obj 185 325 tgl 19 0 empty empty empty 0 -10 0 12 #fcfcfc #000000 #000000 0 1;
#X obj 185 348 s waterTrig;
#X obj 185 301 route water;
#X obj 374 301 route death;
#X floatatom 374 325 5 0 0 0 - - - 0;
#X obj 374 348 s deathTrig;
#X obj 280 301 route tempo;
#X floatatom 280 325 5 0 0 0 - - - 0;
#X obj 280 348 s waterTempo;
#X obj 4 348 s masterTrig;
#X obj 4 301 route master;
#X obj 4 325 tgl 19 0 empty empty empty 0 -10 0 12 #fcfcfc #000000 #000000 0 1;
#X floatatom 460 325 5 0 0 0 - - - 0;
#X obj 460 301 route one_timbre;
#X obj 460 348 s One_Timbre;
#X floatatom 460 411 5 0 0 0 - - - 0;
#X obj 460 387 route two_timbre;
#X obj 460 434 s Two_Timbre;
#X floatatom 97 411 5 0 0 0 - - - 0;
#X obj 97 387 route fire;
#X obj 97 434 s fireTrig;
#X connect 0 0 6 0;
#X connect 0 0 8 0;
#X connect 1 0 0 0;
#X connect 6 0 5 0;
#X connect 8 0 9 0;
#X connect 9 0 11 0;
#X connect 11 0 14 0;
#X connect 11 0 19 0;
#X connect 11 0 20 0;
#X connect 11 0 23 0;
#X connect 11 0 27 0;
#X connect 11 0 30 0;
#X connect 11 0 33 0;
#X connect 11 0 36 0;
#X connect 12 0 0 0;
#X connect 13 0 12 0;
#X connect 14 0 15 0;
#X connect 15 0 16 0;
#X connect 17 0 18 0;
#X connect 19 0 17 0;
#X connect 20 0 21 0;
#X connect 21 0 22 0;
#X connect 23 0 24 0;
#X connect 24 0 25 0;
#X connect 27 0 28 0;
#X connect 28 0 26 0;
#X connect 29 0 31 0;
#X connect 30 0 29 0;
#X connect 32 0 34 0;
#X connect 33 0 32 0;
#X connect 35 0 37 0;
#X connect 36 0 35 0;
#X restore 27 142 pd oscReceive;
#X obj 27 36 tgl 15 0 empty empty empty 17 7 0 10 #fcfcfc #000000 #000000 0 1;
#X msg 27 61 \; pd dsp \$1;
#X obj 24 278 oscformat PD message;
#X msg 56 239 set PD message;
#N canvas 2591 588 450 300 oscSend 0;
#X msg 158 207 disconnect;
#X obj 61 253 netsend -u -b;
#X obj 59 55 list prepend send;
#X obj 59 80 list trim;
#X msg 150 175 connect 127.0.0.1 8001;
#X obj 59 29 r oscOut;
#X text 301 163 send to port 8001;
#X msg 147 148 connect localhost 8001;
#X obj 147 108 loadbang;
#X connect 0 0 1 0;
#X connect 2 0 3 0;
#X connect 3 0 1 0;
#X connect 4 0 1 0;
#X connect 5 0 2 0;
#X connect 7 0 1 0;
#X connect 8 0 7 0;
#X restore 27 118 pd oscSend;
#X obj 24 313 s oscOut;
#X obj 33 1640 mtof;
#X obj 33 1697 *~ 10000;
#X obj 33 1668 osc~;
#X obj 103 1582 delay 100;
#X msg 33 1582 86;
#X msg 103 1611 98;
#X obj 103 1539 bng 15 250 50 0 empty empty empty 17 7 0 10 #fcfcfc #000000 #000000;
#X msg 246 1582 1 0 \, 0 250 0;
#X obj 246 1734 vline~;
#X obj 33 1751 *~;
#X obj 33 1802 dac~;
#X obj 58 1545 bng 15 250 50 0 empty empty empty 17 7 0 10 #fcfcfc #000000 #000000;
#X obj 151 1542 bng 15 250 50 0 empty empty empty 17 7 0 10 #fcfcfc #000000 #000000;
#X obj 33 1725 clip~ 0 1;
#X obj 76 1497 r coinTrig;
#X obj 1718 1537 *~;
#X obj 1709 1582 dac~;
#X obj 1619 1312 mtof;
#X obj 1618 1271 + 0;
#X obj 1601 1063 metro 4000;
#X obj 1601 1029 tgl 15 0 empty empty empty 17 7 0 10 #fcfcfc #000000 #000000 0 1;
#X floatatom 1668 1034 5 0 0 0 - - - 0;
#X obj 1582 1096 f;
#X obj 1625 1098 + 1;
#X obj 1603 1163 select 0 1 2 3;
#X obj 1865 1249 vline~;
#X floatatom 1765 1248 5 0 0 0 - - - 0;
#X obj 1765 1195 loadbang;
#X obj 1602 1131 mod 4;
#X msg 1576 1216 0;
#X obj 1598 1418 phasor~;
#X floatatom 1596 1359 5 0 0 0 - - - 0;
#X obj 1673 1417 phasor~;
#X obj 1672 1386 * -1;
#X obj 1717 1464 +~;
#X obj 1715 1497 -~ 1;
#X msg 1674 1355 0;
#X msg 1722 1355 0.5;
#X obj 1695 1325 bng 15 250 50 0 empty empty empty 17 7 0 10 #fcfcfc #000000 #000000;
#X obj 1694 1300 loadbang;
#X obj 1668 956 loadbang;
#X msg 1668 1000 500;
#X msg 1615 1216 -5;
#X msg 1656 1216 -3;
#X msg 1698 1216 -1;
#X msg 1865 1197 0.5 25 \, 0 100 75;
#X msg 1765 1222 48;
#X obj 1563 990 r waterTrig;
#X obj 654 1523 noise~;
#X obj 652 1718 *~;
#X text 820 1716 Receieve message \, outputs ramp;
#X obj 812 1523 bng 19 250 50 0 empty empty empty 0 -10 0 12 #fcfcfc #000000 #000000;
#X obj 1136 1589 bng 19 250 50 0 empty empty empty 0 -10 0 12 #fcfcfc #000000 #000000;
#X text 1195 1616 Sustain Level \, Decay Time;
#X text 838 1523 Attack Time;
#X obj 1397 1640 bng 19 250 50 0 empty empty empty 0 -10 0 12 #fcfcfc #000000 #000000;
#X obj 652 1802 dac~;
#X msg 812 1581 1 5;
#X obj 1136 1563 delay 5;
#X text 1196 1563 Waits for 5ms after receiving bang \, outputs bang;
#X text 819 1601 Target number \; time ramp takes to go up/down to that number;
#X msg 1136 1615 0.25 50;
#X obj 1397 1616 delay 50;
#X msg 1397 1664 0 300;
#X obj 653 1581 *~ 1;
#X obj 653 1609 bp~ 150 4;
#X obj 481 1565 hip~ 8000;
#X obj 481 1613 *~ 0.1;
#X obj 653 1637 *~ 20;
#X obj 652 1758 *~ 1;
#X obj 653 1665 clip~ -0.9 0.9;
#X text 391 1647 Highpass filtered noise \; for transient;
#X text 693 1638 Volume 20;
#X text 573 1684 clip~ after scaling volume * 20;
#X text 1465 1615 Release Ramp \; sustain for 45ms (?);
#X obj 812 1695 line~;
#X obj 812 1491 r deathTrig;
#X obj 1794 1025 r waterTempo;
#X obj 200 475 loadbang;
#X msg 200 499 375;
#X floatatom 200 523 5 0 0 0 - - - 0;
#X obj 161 547 metro, f 6;
#X obj 161 510 tgl 32 0 empty empty empty 0 -10 0 12 #fcfcfc #000000 #000000 0 1;
#X obj 91 554 sel 0;
#X obj 24 554 loadbang;
#X msg 91 616 -1;
#X obj 91 593 bng 19 250 50 0 empty empty empty 0 -10 0 12 #fcfcfc #000000 #000000;
#X obj 161 571 bng 19 250 50 0 empty empty empty 0 -10 0 12 #fcfcfc #000000 #000000;
#X obj 161 647 int 1;
#X obj 225 670 + 1;
#X floatatom 161 671 5 0 0 0 - - - 0;
#X obj 161 694 % 8;
#X obj 161 718 + 1;
#X floatatom 161 742 5 0 0 0 - - - 0;
#X text 114 593 Reset;
#X obj 530 41 receive One;
#X obj 530 65 bng 19 250 50 0 empty empty empty 0 -10 0 12 #fcfcfc #000000 #000000;
#X obj 530 102 spigot;
#X obj 530 126 bng 19 250 50 0 empty empty empty 0 -10 0 12 #fcfcfc #000000 #000000;
#X obj 569 65 tgl 32 0 empty empty empty 0 -10 0 12 #fcfcfc #000000 #000000 0 1;
#X obj 615 65 bng 19 250 50 0 empty empty empty 0 -10 0 12 #fcfcfc #000000 #000000;
#X obj 615 102 spigot;
#X obj 615 126 bng 19 250 50 0 empty empty empty 0 -10 0 12 #fcfcfc #000000 #000000;
#X obj 654 65 tgl 32 0 empty empty empty 0 -10 0 12 #fcfcfc #000000 #000000 0 1;
#X obj 700 65 bng 19 250 50 0 empty empty empty 0 -10 0 12 #fcfcfc #000000 #000000;
#X obj 700 102 spigot;
#X obj 700 126 bng 19 250 50 0 empty empty empty 0 -10 0 12 #fcfcfc #000000 #000000;
#X obj 739 65 tgl 32 0 empty empty empty 0 -10 0 12 #fcfcfc #000000 #000000 0 1;
#X obj 799 65 bng 19 250 50 0 empty empty empty 0 -10 0 12 #fcfcfc #000000 #000000;
#X obj 799 102 spigot;
#X obj 799 126 bng 19 250 50 0 empty empty empty 0 -10 0 12 #fcfcfc #000000 #000000;
#X obj 838 65 tgl 32 0 empty empty empty 0 -10 0 12 #fcfcfc #000000 #000000 0 1;
#X obj 891 65 bng 19 250 50 0 empty empty empty 0 -10 0 12 #fcfcfc #000000 #000000;
#X obj 891 102 spigot;
#X obj 891 126 bng 19 250 50 0 empty empty empty 0 -10 0 12 #fcfcfc #000000 #000000;
#X obj 930 65 tgl 32 0 empty empty empty 0 -10 0 12 #fcfcfc #000000 #000000 0 1;
#X obj 615 41 receive Two;
#X obj 700 41 receive Three;
#X obj 799 41 receive Four;
#X obj 891 41 receive Five;
#X obj 983 65 bng 19 250 50 0 empty empty empty 0 -10 0 12 #fcfcfc #000000 #000000;
#X obj 983 102 spigot;
#X obj 983 126 bng 19 250 50 0 empty empty empty 0 -10 0 12 #fcfcfc #000000 #000000;
#X obj 1022 65 tgl 32 0 empty empty empty 0 -10 0 12 #fcfcfc #000000 #000000 0 1;
#X obj 1068 65 bng 19 250 50 0 empty empty empty 0 -10 0 12 #fcfcfc #000000 #000000;
#X obj 1068 102 spigot;
#X obj 1068 126 bng 19 250 50 0 empty empty empty 0 -10 0 12 #fcfcfc #000000 #000000;
#X obj 1107 65 tgl 32 0 empty empty empty 0 -10 0 12 #fcfcfc #000000 #000000 0 1;
#X obj 1168 65 bng 19 250 50 0 empty empty empty 0 -10 0 12 #fcfcfc #000000 #000000;
#X obj 1168 102 spigot;
#X obj 1168 126 bng 19 250 50 0 empty empty empty 0 -10 0 12 #fcfcfc #000000 #000000;
#X obj 1207 65 tgl 32 0 empty empty empty 0 -10 0 12 #fcfcfc #000000 #000000 0 1;
#X obj 983 41 receive Six;
#X obj 1069 41 receive Seven;
#X obj 1168 41 receive Eight;
#X text 41 846 Send Objects;
#X text 104 671 Counter;
#X obj 1405 1304 *~;
#X obj 1404 1387 dac~;
#X obj 1434 1134 vsl 19 162 0 0.1 0 0 empty empty empty 0 -9 0 12 #fcfcfc #000000 #000000 0 1;
#X floatatom 1434 1304 5 0 0 0 - - - 0;
#X obj 1307 985 bng 19 250 50 0 empty empty empty 0 -10 0 12 #fcfcfc #000000 #000000;
#X obj 161 765 select 0 1 2 3 4 5 6 7 8;
#X obj 43 798 bng 19 250 50 0 empty empty empty 0 -10 0 12 #fcfcfc #000000 #000000;
#X obj 43 822 s One;
#X obj 100 798 bng 19 250 50 0 empty empty empty 0 -10 0 12 #fcfcfc #000000 #000000;
#X obj 100 822 s Two;
#X obj 155 798 bng 19 250 50 0 empty empty empty 0 -10 0 12 #fcfcfc #000000 #000000;
#X obj 155 822 s Three;
#X obj 214 798 bng 19 250 50 0 empty empty empty 0 -10 0 12 #fcfcfc #000000 #000000;
#X obj 214 822 s Four;
#X obj 272 798 bng 19 250 50 0 empty empty empty 0 -10 0 12 #fcfcfc #000000 #000000;
#X obj 330 798 bng 19 250 50 0 empty empty empty 0 -10 0 12 #fcfcfc #000000 #000000;
#X obj 390 798 bng 19 250 50 0 empty empty empty 0 -10 0 12 #fcfcfc #000000 #000000;
#X obj 449 798 bng 19 250 50 0 empty empty empty 0 -10 0 12 #fcfcfc #000000 #000000;
#X obj 272 822 s Five;
#X obj 330 822 s Six;
#X obj 390 822 s Seven;
#X obj 449 822 s Eight;
#X text 228 499 Wait (ms);
#X text 115 477 Start/Stop \; Main Clock;
#X obj 1404 1351 *~ 0;
#N canvas 0 50 450 250 (subpatch) 0;
#X array output_three 200 float 1;
#A 0 0 0 0 0 0 0 0 0 0 0 0 0 0 0 0 0 0 0 0 0 0 0 0 0 0 0 0 0 0 0 0 0 0 0 0 0 0 0 0 0 0 0 0 0 0 0 0 0 0 0 0 0 0 0 0 0 0 0 0 0 0 0 0 0 0 0 0 0 0 0 0 0 0 0 0 0 0 0 0 0 0 0 0 0 0 0 0 0 0 0 0 0 0 0 0 0 0 0 0 0 0 0 0 0 0 0 0 0 0 0 0 0 0 0 0 0 0 0 0 0 0 0 0 0 0 0 0 0 0 0 0 0 0 0 0 0 0 0 0 0 0 0 0 0 0 0 0 0 0 0 0 0 0 0 0 0 0 0 0 0 0 0 0 0 0 0 0 0 0 0 0 0 0 0 0 0 0 0 0 0 0 0 0 0 0 0 0 0 0 0 0 0 0 0 0 0 0 0 0 0;
#X coords 0 5 199 -5 470 155 1 0 0;
#X restore 1283 401 graph;
#X obj 530 221 receive One;
#X obj 530 245 bng 19 250 50 0 empty empty empty 0 -10 0 12 #fcfcfc #000000 #000000;
#X obj 530 282 spigot;
#X obj 530 306 bng 19 250 50 0 empty empty empty 0 -10 0 12 #fcfcfc #000000 #000000;
#X obj 569 245 tgl 32 0 empty empty empty 0 -10 0 12 #fcfcfc #000000 #000000 0 1;
#X obj 615 245 bng 19 250 50 0 empty empty empty 0 -10 0 12 #fcfcfc #000000 #000000;
#X obj 615 282 spigot;
#X obj 615 306 bng 19 250 50 0 empty empty empty 0 -10 0 12 #fcfcfc #000000 #000000;
#X obj 654 245 tgl 32 0 empty empty empty 0 -10 0 12 #fcfcfc #000000 #000000 0 1;
#X obj 700 245 bng 19 250 50 0 empty empty empty 0 -10 0 12 #fcfcfc #000000 #000000;
#X obj 700 282 spigot;
#X obj 700 306 bng 19 250 50 0 empty empty empty 0 -10 0 12 #fcfcfc #000000 #000000;
#X obj 739 245 tgl 32 0 empty empty empty 0 -10 0 12 #fcfcfc #000000 #000000 0 1;
#X obj 799 245 bng 19 250 50 0 empty empty empty 0 -10 0 12 #fcfcfc #000000 #000000;
#X obj 799 282 spigot;
#X obj 799 306 bng 19 250 50 0 empty empty empty 0 -10 0 12 #fcfcfc #000000 #000000;
#X obj 838 245 tgl 32 0 empty empty empty 0 -10 0 12 #fcfcfc #000000 #000000 0 1;
#X obj 891 245 bng 19 250 50 0 empty empty empty 0 -10 0 12 #fcfcfc #000000 #000000;
#X obj 891 282 spigot;
#X obj 891 306 bng 19 250 50 0 empty empty empty 0 -10 0 12 #fcfcfc #000000 #000000;
#X obj 930 245 tgl 32 0 empty empty empty 0 -10 0 12 #fcfcfc #000000 #000000 0 1;
#X obj 615 221 receive Two;
#X obj 700 221 receive Three;
#X obj 799 221 receive Four;
#X obj 891 221 receive Five;
#X obj 983 245 bng 19 250 50 0 empty empty empty 0 -10 0 12 #fcfcfc #000000 #000000;
#X obj 983 282 spigot;
#X obj 983 306 bng 19 250 50 0 empty empty empty 0 -10 0 12 #fcfcfc #000000 #000000;
#X obj 1022 245 tgl 32 0 empty empty empty 0 -10 0 12 #fcfcfc #000000 #000000 0 1;
#X obj 1068 245 bng 19 250 50 0 empty empty empty 0 -10 0 12 #fcfcfc #000000 #000000;
#X obj 1068 282 spigot;
#X obj 1068 306 bng 19 250 50 0 empty empty empty 0 -10 0 12 #fcfcfc #000000 #000000;
#X obj 1107 245 tgl 32 0 empty empty empty 0 -10 0 12 #fcfcfc #000000 #000000 0 1;
#X obj 1168 245 bng 19 250 50 0 empty empty empty 0 -10 0 12 #fcfcfc #000000 #000000;
#X obj 1168 282 spigot;
#X obj 1168 306 bng 19 250 50 0 empty empty empty 0 -10 0 12 #fcfcfc #000000 #000000;
#X obj 1207 245 tgl 32 0 empty empty empty 0 -10 0 12 #fcfcfc #000000 #000000 0 1;
#X obj 983 221 receive Six;
#X obj 1069 221 receive Seven;
#X obj 1168 221 receive Eight;
#X obj 530 401 receive One;
#X obj 530 425 bng 19 250 50 0 empty empty empty 0 -10 0 12 #fcfcfc #000000 #000000;
#X obj 530 462 spigot;
#X obj 530 476 bng 19 250 50 0 empty empty empty 0 -10 0 12 #fcfcfc #000000 #000000;
#X obj 569 425 tgl 32 0 empty empty empty 0 -10 0 12 #fcfcfc #000000 #000000 0 1;
#X obj 615 425 bng 19 250 50 0 empty empty empty 0 -10 0 12 #fcfcfc #000000 #000000;
#X obj 615 462 spigot;
#X obj 615 486 bng 19 250 50 0 empty empty empty 0 -10 0 12 #fcfcfc #000000 #000000;
#X obj 654 425 tgl 32 0 empty empty empty 0 -10 0 12 #fcfcfc #000000 #000000 0 1;
#X obj 700 425 bng 19 250 50 0 empty empty empty 0 -10 0 12 #fcfcfc #000000 #000000;
#X obj 700 462 spigot;
#X obj 700 486 bng 19 250 50 0 empty empty empty 0 -10 0 12 #fcfcfc #000000 #000000;
#X obj 739 425 tgl 32 0 empty empty empty 0 -10 0 12 #fcfcfc #000000 #000000 0 1;
#X obj 799 425 bng 19 250 50 0 empty empty empty 0 -10 0 12 #fcfcfc #000000 #000000;
#X obj 799 462 spigot;
#X obj 799 486 bng 19 250 50 0 empty empty empty 0 -10 0 12 #fcfcfc #000000 #000000;
#X obj 838 425 tgl 32 0 empty empty empty 0 -10 0 12 #fcfcfc #000000 #000000 0 1;
#X obj 891 425 bng 19 250 50 0 empty empty empty 0 -10 0 12 #fcfcfc #000000 #000000;
#X obj 891 462 spigot;
#X obj 891 486 bng 19 250 50 0 empty empty empty 0 -10 0 12 #fcfcfc #000000 #000000;
#X obj 930 425 tgl 32 0 empty empty empty 0 -10 0 12 #fcfcfc #000000 #000000 0 1;
#X obj 615 401 receive Two;
#X obj 700 401 receive Three;
#X obj 799 401 receive Four;
#X obj 891 401 receive Five;
#X obj 983 425 bng 19 250 50 0 empty empty empty 0 -10 0 12 #fcfcfc #000000 #000000;
#X obj 983 462 spigot;
#X obj 983 486 bng 19 250 50 0 empty empty empty 0 -10 0 12 #fcfcfc #000000 #000000;
#X obj 1022 425 tgl 32 0 empty empty empty 0 -10 0 12 #fcfcfc #000000 #000000 0 1;
#X obj 1068 425 bng 19 250 50 0 empty empty empty 0 -10 0 12 #fcfcfc #000000 #000000;
#X obj 1068 462 spigot;
#X obj 1068 486 bng 19 250 50 0 empty empty empty 0 -10 0 12 #fcfcfc #000000 #000000;
#X obj 1107 425 tgl 32 0 empty empty empty 0 -10 0 12 #fcfcfc #000000 #000000 0 1;
#X obj 1168 425 bng 19 250 50 0 empty empty empty 0 -10 0 12 #fcfcfc #000000 #000000;
#X obj 1168 462 spigot;
#X obj 1168 486 bng 19 250 50 0 empty empty empty 0 -10 0 12 #fcfcfc #000000 #000000;
#X obj 1207 425 tgl 32 0 empty empty empty 0 -10 0 12 #fcfcfc #000000 #000000 0 1;
#X obj 983 401 receive Six;
#X obj 1069 401 receive Seven;
#X obj 1168 401 receive Eight;
#X obj 530 581 receive One;
#X obj 530 605 bng 19 250 50 0 empty empty empty 0 -10 0 12 #fcfcfc #000000 #000000;
#X obj 530 642 spigot;
#X obj 530 656 bng 19 250 50 0 empty empty empty 0 -10 0 12 #fcfcfc #000000 #000000;
#X obj 569 605 tgl 32 0 empty empty empty 0 -10 0 12 #fcfcfc #000000 #000000 0 1;
#X obj 615 605 bng 19 250 50 0 empty empty empty 0 -10 0 12 #fcfcfc #000000 #000000;
#X obj 615 642 spigot;
#X obj 615 666 bng 19 250 50 0 empty empty empty 0 -10 0 12 #fcfcfc #000000 #000000;
#X obj 654 605 tgl 32 0 empty empty empty 0 -10 0 12 #fcfcfc #000000 #000000 0 1;
#X obj 700 605 bng 19 250 50 0 empty empty empty 0 -10 0 12 #fcfcfc #000000 #000000;
#X obj 700 642 spigot;
#X obj 700 666 bng 19 250 50 0 empty empty empty 0 -10 0 12 #fcfcfc #000000 #000000;
#X obj 739 605 tgl 32 0 empty empty empty 0 -10 0 12 #fcfcfc #000000 #000000 0 1;
#X obj 799 605 bng 19 250 50 0 empty empty empty 0 -10 0 12 #fcfcfc #000000 #000000;
#X obj 799 642 spigot;
#X obj 799 666 bng 19 250 50 0 empty empty empty 0 -10 0 12 #fcfcfc #000000 #000000;
#X obj 838 605 tgl 32 0 empty empty empty 0 -10 0 12 #fcfcfc #000000 #000000 0 1;
#X obj 891 605 bng 19 250 50 0 empty empty empty 0 -10 0 12 #fcfcfc #000000 #000000;
#X obj 891 642 spigot;
#X obj 891 666 bng 19 250 50 0 empty empty empty 0 -10 0 12 #fcfcfc #000000 #000000;
#X obj 930 605 tgl 32 0 empty empty empty 0 -10 0 12 #fcfcfc #000000 #000000 0 1;
#X obj 615 581 receive Two;
#X obj 700 581 receive Three;
#X obj 799 581 receive Four;
#X obj 891 581 receive Five;
#X obj 983 605 bng 19 250 50 0 empty empty empty 0 -10 0 12 #fcfcfc #000000 #000000;
#X obj 983 642 spigot;
#X obj 983 666 bng 19 250 50 0 empty empty empty 0 -10 0 12 #fcfcfc #000000 #000000;
#X obj 1022 605 tgl 32 0 empty empty empty 0 -10 0 12 #fcfcfc #000000 #000000 0 1;
#X obj 1068 605 bng 19 250 50 0 empty empty empty 0 -10 0 12 #fcfcfc #000000 #000000;
#X obj 1068 642 spigot;
#X obj 1068 666 bng 19 250 50 0 empty empty empty 0 -10 0 12 #fcfcfc #000000 #000000;
#X obj 1107 605 tgl 32 0 empty empty empty 0 -10 0 12 #fcfcfc #000000 #000000 0 1;
#X obj 1168 605 bng 19 250 50 0 empty empty empty 0 -10 0 12 #fcfcfc #000000 #000000;
#X obj 1168 642 spigot;
#X obj 1168 666 bng 19 250 50 0 empty empty empty 0 -10 0 12 #fcfcfc #000000 #000000;
#X obj 1207 605 tgl 32 0 empty empty empty 0 -10 0 12 #fcfcfc #000000 #000000 0 1;
#X obj 983 581 receive Six;
#X obj 1069 581 receive Seven;
#X obj 1168 581 receive Eight;
#X obj 799 171 send Channel_One;
#X obj 800 351 send Channel_Two;
#X obj 799 531 send Channel_Three;
#X obj 799 711 send Channel_Four;
#X obj 1307 961 receive Channel_Three;
#X obj 1327 1409 tabwrite~ output_three;
#X text 528 17 Pulse Wave 1;
#X text 528 197 Pulse Wave 2;
#X text 528 377 Triangle Wave;
#X text 528 557 Noise;
#X obj 457 1320 *~;
#X obj 456 1403 dac~;
#X obj 491 1176 vsl 19 162 0 0.1 0 0 empty empty empty 0 -9 0 12 #fcfcfc #000000 #000000 0 1;
#X floatatom 491 1345 5 0 0 0 - - - 0;
#X obj 359 981 bng 19 250 50 0 empty empty empty 0 -10 0 12 #fcfcfc #000000 #000000;
#X obj 456 1367 *~ 0;
#N canvas 0 50 450 250 (subpatch) 0;
#X array output_one 200 float 1;
#A 0 0 0 0 0 0 0 0 0 0 0 0 0 0 0 0 0 0 0 0 0 0 0 0 0 0 0 0 0 0 0 0 0 0 0 0 0 0 0 0 0 0 0 0 0 0 0 0 0 0 0 0 0 0 0 0 0 0 0 0 0 0 0 0 0 0 0 0 0 0 0 0 0 0 0 0 0 0 0 0 0 0 0 0 0 0 0 0 0 0 0 0 0 0 0 0 0 0 0 0 0 0 0 0 0 0 0 0 0 0 0 0 0 0 0 0 0 0 0 0 0 0 0 0 0 0 0 0 0 0 0 0 0 0 0 0 0 0 0 0 0 0 0 0 0 0 0 0 0 0 0 0 0 0 0 0 0 0 0 0 0 0 0 0 0 0 0 0 0 0 0 0 0 0 0 0 0 0 0 0 0 0 0 0 0 0 0 0 0 0 0 0 0 0 0 0 0 0 0 0 0;
#X coords 0 5 199 -5 470 155 1 0 0;
#X restore 1283 41 graph;
#X obj 25 398 bng 19 250 50 0 empty empty empty 0 -10 0 12 #fcfcfc #000000 #000000;
#X obj 25 352 tgl 19 0 empty empty empty 0 -10 0 12 #fcfcfc #000000 #000000 0 1;
#X obj 379 1425 tabwrite~ output_one;
#N canvas 0 50 450 250 (subpatch) 0;
#X array output_two 200 float 1;
#A 0 0 0 0 0 0 0 0 0 0 0 0 0 0 0 0 0 0 0 0 0 0 0 0 0 0 0 0 0 0 0 0 0 0 0 0 0 0 0 0 0 0 0 0 0 0 0 0 0 0 0 0 0 0 0 0 0 0 0 0 0 0 0 0 0 0 0 0 0 0 0 0 0 0 0 0 0 0 0 0 0 0 0 0 0 0 0 0 0 0 0 0 0 0 0 0 0 0 0 0 0 0 0 0 0 0 0 0 0 0 0 0 0 0 0 0 0 0 0 0 0 0 0 0 0 0 0 0 0 0 0 0 0 0 0 0 0 0 0 0 0 0 0 0 0 0 0 0 0 0 0 0 0 0 0 0 0 0 0 0 0 0 0 0 0 0 0 0 0 0 0 0 0 0 0 0 0 0 0 0 0 0 0 0 0 0 0 0 0 0 0 0 0 0 0 0 0 0 0 0 0;
#X coords 0 5 199 -5 470 155 1 0 0;
#X restore 1283 221 graph;
#N canvas 0 50 450 250 (subpatch) 0;
#X array output_four 200 float 1;
#A 0 0 0 0 0 0 0 0 0 0 0 0 0 0 0 0 0 0 0 0 0 0 0 0 0 0 0 0 0 0 0 0 0 0 0 0 0 0 0 0 0 0 0 0 0 0 0 0 0 0 0 0 0 0 0 0 0 0 0 0 0 0 0 0 0 0 0 0 0 0 0 0 0 0 0 0 0 0 0 0 0 0 0 0 0 0 0 0 0 0 0 0 0 0 0 0 0 0 0 0 0 0 0 0 0 0 0 0 0 0 0 0 0 0 0 0 0 0 0 0 0 0 0 0 0 0 0 0 0 0 0 0 0 0 0 0 0 0 0 0 0 0 0 0 0 0 0 0 0 0 0 0 0 0 0 0 0 0 0 0 0 0 0 0 0 0 0 0 0 0 0 0 0 0 0 0 0 0 0 0 0 0 0 0 0 0 0 0 0 0 0 0 0 0 0 0 0 0 0 0 0;
#X coords 0 5 199 -5 470 155 1 0 0;
#X restore 1283 581 graph;
#X obj 359 957 receive Channel_One;
#X obj 1070 1333 *~;
#X obj 1069 1416 dac~;
#X obj 1106 1190 vsl 19 162 0 0.1 0 0 empty empty empty 0 -9 0 12 #fcfcfc #000000 #000000 0 1;
#X floatatom 1106 1359 5 0 0 0 - - - 0;
#X obj 972 994 bng 19 250 50 0 empty empty empty 0 -10 0 12 #fcfcfc #000000 #000000;
#X obj 1069 1380 *~ 0;
#X obj 972 970 receive Channel_Two;
#X obj 992 1438 tabwrite~ output_two;
#X obj 1829 368 *~;
#X obj 1894 455 dac~;
#X obj 1919 228 vsl 19 162 0 0.1 0 0 empty empty empty 0 -9 0 12 #fcfcfc #000000 #000000 0 1;
#X floatatom 1919 398 5 0 0 0 - - - 0;
#X obj 1774 72 bng 19 250 50 0 empty empty empty 0 -10 0 12 #fcfcfc #000000 #000000;
#X obj 1894 419 *~ 0;
#X obj 1794 477 tabwrite~ output_four;
#X obj 1774 41 receive Channel_Four;
#X text 516 1325 Volume;
#X text 1131 1332 Volume;
#X text 1459 1283 Volume;
#X text 1944 377 Volume;
#X obj 1780 117 noise~;
#X obj 1316 1166 * -1;
#X obj 1316 1214 *~ 2;
#X obj 1316 1238 -~ 1;
#X obj 1316 1262 clip~ 0 1;
#X obj 1316 1286 +~;
#X obj 1244 1190 phasor~;
#X obj 1316 1190 phasor~;
#X obj 1244 1214 *~ 2;
#X obj 1244 1238 -~ 1;
#X obj 1244 1262 clip~ 0 1;
#X msg 1353 1160 0;
#X obj 1244 1026 int;
#X obj 1323 1027 + 1;
#X floatatom 1244 1050 5 0 0 0 - - - 0;
#X obj 1244 1073 % 4;
#X floatatom 1244 1097 5 0 0 0 - - - 0;
#X obj 1244 1120 + 1;
#X floatatom 1244 1144 5 0 0 0 - - - 0;
#X obj 1244 1167 * 80;
#X obj 25 480 r masterTrig;
#X obj 190 1167 * -1;
#X obj 214 1058 bng 15 250 50 0 empty wave1 empty 17 7 0 10 #fcfcfc #000000 #000000;
#X obj 134 1261 +~;
#X obj 145 1294 -~ 1;
#X obj 79 1218 phasor~;
#X msg 114 1173 0;
#X obj 187 1214 phasor~;
#X obj 75 1114 * 1;
#X obj 201 1010 loadbang;
#X floatatom 75 1091 5 0 0 0 - - - 0;
#X text 113 1093 Frequency;
#X text 216 1034 Change Duty Cycle to adjust timbre;
#X obj 75 926 int;
#X obj 154 927 + 1;
#X floatatom 75 950 5 0 0 0 - - - 0;
#X obj 75 973 % 4;
#X floatatom 75 997 5 0 0 0 - - - 0;
#X obj 75 1020 + 1;
#X floatatom 75 1044 5 0 0 0 - - - 0;
#X obj 75 1067 * 80;
#X obj 799 1180 * -1;
#X obj 823 1071 bng 15 250 50 0 empty wave1 empty 17 7 0 10 #fcfcfc #000000 #000000;
#X obj 743 1274 +~;
#X obj 754 1307 -~ 1;
#X obj 688 1231 phasor~;
#X msg 723 1186 0;
#X obj 796 1227 phasor~;
#X obj 684 1127 * 1;
#X obj 810 1023 loadbang;
#X floatatom 684 1104 5 0 0 0 - - - 0;
#X text 722 1106 Frequency;
#X text 825 1047 Change Duty Cycle to adjust timbre;
#X obj 684 939 int;
#X obj 763 940 + 1;
#X floatatom 684 963 5 0 0 0 - - - 0;
#X obj 684 986 % 4;
#X floatatom 684 1010 5 0 0 0 - - - 0;
#X obj 684 1033 + 1;
#X floatatom 684 1057 5 0 0 0 - - - 0;
#X obj 684 1080 * 80;
#X obj 25 420 s tabwrite;
#X obj 379 1403 r tabwrite;
#X obj 992 1416 r tabwrite;
#X obj 1327 1387 r tabwrite;
#X obj 1817 455 r tabwrite;
#X text 48 352 Write output;
#X obj 25 375 metro 10;
#X obj 1073 1082 vline~;
#X obj 464 1065 vline~;
#X obj 1868 136 vline~;
#X obj 1369 1055 vline~;
#X msg 1369 1003 5 50 \, 0 100 75;
#X msg 1868 84 0.5 10 \, 0 100 75;
#X msg 464 1034 1 25 \, 0 100 75;
#X msg 1073 1046 1 25 \, 0 100 75;
#X obj 358 1065 r One_Timbre;
#X obj 960 1082 r Two_Timbre;
#X floatatom 253 1109 5 0 0 0 - - - 0;
#X obj 530 761 receive One;
#X obj 530 785 bng 19 250 50 0 empty empty empty 0 -10 0 12 #fcfcfc #000000 #000000;
#X obj 530 822 spigot;
#X obj 530 836 bng 19 250 50 0 empty empty empty 0 -10 0 12 #fcfcfc #000000 #000000;
#X obj 569 785 tgl 32 0 empty empty empty 0 -10 0 12 #fcfcfc #000000 #000000 0 1;
#X obj 615 785 bng 19 250 50 0 empty empty empty 0 -10 0 12 #fcfcfc #000000 #000000;
#X obj 615 822 spigot;
#X obj 615 846 bng 19 250 50 0 empty empty empty 0 -10 0 12 #fcfcfc #000000 #000000;
#X obj 654 785 tgl 32 0 empty empty empty 0 -10 0 12 #fcfcfc #000000 #000000 0 1;
#X obj 700 785 bng 19 250 50 0 empty empty empty 0 -10 0 12 #fcfcfc #000000 #000000;
#X obj 700 822 spigot;
#X obj 700 846 bng 19 250 50 0 empty empty empty 0 -10 0 12 #fcfcfc #000000 #000000;
#X obj 739 785 tgl 32 0 empty empty empty 0 -10 0 12 #fcfcfc #000000 #000000 0 1;
#X obj 799 785 bng 19 250 50 0 empty empty empty 0 -10 0 12 #fcfcfc #000000 #000000;
#X obj 799 822 spigot;
#X obj 799 846 bng 19 250 50 0 empty empty empty 0 -10 0 12 #fcfcfc #000000 #000000;
#X obj 838 785 tgl 32 0 empty empty empty 0 -10 0 12 #fcfcfc #000000 #000000 0 1;
#X obj 891 785 bng 19 250 50 0 empty empty empty 0 -10 0 12 #fcfcfc #000000 #000000;
#X obj 891 822 spigot;
#X obj 891 846 bng 19 250 50 0 empty empty empty 0 -10 0 12 #fcfcfc #000000 #000000;
#X obj 930 785 tgl 32 0 empty empty empty 0 -10 0 12 #fcfcfc #000000 #000000 0 1;
#X obj 615 761 receive Two;
#X obj 700 761 receive Three;
#X obj 799 761 receive Four;
#X obj 891 761 receive Five;
#X obj 983 785 bng 19 250 50 0 empty empty empty 0 -10 0 12 #fcfcfc #000000 #000000;
#X obj 983 822 spigot;
#X obj 983 846 bng 19 250 50 0 empty empty empty 0 -10 0 12 #fcfcfc #000000 #000000;
#X obj 1022 785 tgl 32 0 empty empty empty 0 -10 0 12 #fcfcfc #000000 #000000 0 1;
#X obj 1068 785 bng 19 250 50 0 empty empty empty 0 -10 0 12 #fcfcfc #000000 #000000;
#X obj 1068 822 spigot;
#X obj 1068 846 bng 19 250 50 0 empty empty empty 0 -10 0 12 #fcfcfc #000000 #000000;
#X obj 1107 785 tgl 32 0 empty empty empty 0 -10 0 12 #fcfcfc #000000 #000000 0 1;
#X obj 1168 785 bng 19 250 50 0 empty empty empty 0 -10 0 12 #fcfcfc #000000 #000000;
#X obj 1168 822 spigot;
#X obj 1168 846 bng 19 250 50 0 empty empty empty 0 -10 0 12 #fcfcfc #000000 #000000;
#X obj 1207 785 tgl 32 0 empty empty empty 0 -10 0 12 #fcfcfc #000000 #000000 0 1;
#X obj 983 761 receive Six;
#X obj 1069 761 receive Seven;
#X obj 1168 761 receive Eight;
#X obj 799 891 send Channel_Five;
#N canvas 0 50 450 250 (subpatch) 0;
#X array output_five 200 float 1;
#A 0 0 0 0 0 0 0 0 0 0 0 0 0 0 0 0 0 0 0 0 0 0 0 0 0 0 0 0 0 0 0 0 0 0 0 0 0 0 0 0 0 0 0 0 0 0 0 0 0 0 0 0 0 0 0 0 0 0 0 0 0 0 0 0 0 0 0 0 0 0 0 0 0 0 0 0 0 0 0 0 0 0 0 0 0 0 0 0 0 0 0 0 0 0 0 0 0 0 0 0 0 0 0 0 0 0 0 0 0 0 0 0 0 0 0 0 0 0 0 0 0 0 0 0 0 0 0 0 0 0 0 0 0 0 0 0 0 0 0 0 0 0 0 0 0 0 0 0 0 0 0 0 0 0 0 0 0 0 0 0 0 0 0 0 0 0 0 0 0 0 0 0 0 0 0 0 0 0 0 0 0 0 0 0 0 0 0 0 0 0 0 0 0 0 0 0 0 0 0 0 0;
#X coords 0 5 199 -5 470 155 1 0 0;
#X restore 1283 761 graph;
#X text 528 736 Samples;
#X obj 1930 897 dac~;
#X obj 1955 668 vsl 19 162 0 0.1 0 0 empty empty empty 0 -9 0 12 #fcfcfc #000000 #000000 0 1;
#X floatatom 1955 838 5 0 0 0 - - - 0;
#X obj 1832 542 bng 19 250 50 0 empty empty empty 0 -10 0 12 #fcfcfc #000000 #000000;
#X obj 1930 861 *~ 0;
#X obj 1775 897 tabwrite~ output_five;
#X text 1905 747 Volume;
#X obj 1775 875 r tabwrite;
#X obj 1765 595 readsf~;
#X obj 1904 596 vline~;
#X obj 1832 726 *~;
#X msg 1904 571 20 50 \, 0 100 75;
#X text 71 903 BGM that adjusts timbre as game multiplier increases;
#X floatatom 873 1122 5 0 0 0 - - - 0;
#X msg 1765 570 open shoot.wav \, 1;
#X text 1775 519 Samples;
#X text 1922 41 Noise;
#X obj 1955 596 loadbang;
#X obj 1955 620 bng 19 250 50 0 empty empty empty 0 -10 0 12 #fcfcfc #000000 #000000;
#X obj 1832 518 r fireTrig;
#X obj 1434 1061 loadbang;
#X obj 1434 1085 bng 19 250 50 0 empty empty empty 0 -10 0 12 #fcfcfc #000000 #000000;
#X obj 1106 1117 loadbang;
#X obj 1106 1141 bng 19 250 50 0 empty empty empty 0 -10 0 12 #fcfcfc #000000 #000000;
#X msg 1106 1165 0.1;
#X msg 1434 1109 0.1;
#X obj 1919 154 loadbang;
#X obj 1919 178 bng 19 250 50 0 empty empty empty 0 -10 0 12 #fcfcfc #000000 #000000;
#X msg 1919 202 0.1;
#X msg 1955 644 0.025;
#X obj 491 1102 loadbang;
#X obj 491 1126 bng 19 250 50 0 empty empty empty 0 -10 0 12 #fcfcfc #000000 #000000;
#X msg 491 1150 0.1;
#X connect 6 0 10 0;
#X connect 8 0 9 0;
#X connect 10 0 13 0;
#X connect 11 0 10 0;
#X connect 14 0 16 0;
#X connect 15 0 27 0;
#X connect 16 0 15 0;
#X connect 17 0 19 0;
#X connect 18 0 14 0;
#X connect 19 0 14 0;
#X connect 20 0 21 0;
#X connect 20 0 18 0;
#X connect 20 0 17 0;
#X connect 21 0 22 0;
#X connect 22 0 23 1;
#X connect 23 0 24 0;
#X connect 23 0 24 1;
#X connect 25 0 18 0;
#X connect 25 0 21 0;
#X connect 26 0 19 0;
#X connect 26 0 21 0;
#X connect 27 0 23 0;
#X connect 28 0 25 0;
#X connect 28 0 20 0;
#X connect 28 0 26 0;
#X connect 29 0 30 0;
#X connect 29 0 30 1;
#X connect 31 0 45 0;
#X connect 32 0 31 0;
#X connect 33 0 36 0;
#X connect 33 0 59 0;
#X connect 34 0 33 0;
#X connect 35 0 33 1;
#X connect 36 0 37 0;
#X connect 36 0 42 0;
#X connect 37 0 36 1;
#X connect 38 0 43 0;
#X connect 38 1 56 0;
#X connect 38 2 57 0;
#X connect 38 3 58 0;
#X connect 39 0 29 1;
#X connect 40 0 32 1;
#X connect 41 0 60 0;
#X connect 42 0 38 0;
#X connect 43 0 32 0;
#X connect 44 0 48 0;
#X connect 45 0 44 0;
#X connect 45 0 47 0;
#X connect 46 0 48 1;
#X connect 47 0 46 0;
#X connect 48 0 49 0;
#X connect 49 0 29 0;
#X connect 50 0 44 1;
#X connect 51 0 46 1;
#X connect 52 0 50 0;
#X connect 52 0 51 0;
#X connect 53 0 52 0;
#X connect 54 0 55 0;
#X connect 55 0 35 0;
#X connect 56 0 32 0;
#X connect 57 0 32 0;
#X connect 58 0 32 0;
#X connect 59 0 39 0;
#X connect 60 0 40 0;
#X connect 61 0 34 0;
#X connect 62 0 78 0;
#X connect 62 0 80 0;
#X connect 63 0 83 0;
#X connect 65 0 71 0;
#X connect 65 0 72 0;
#X connect 66 0 75 0;
#X connect 66 0 76 0;
#X connect 69 0 77 0;
#X connect 71 0 89 0;
#X connect 72 0 66 0;
#X connect 75 0 89 0;
#X connect 76 0 69 0;
#X connect 77 0 89 0;
#X connect 78 0 79 0;
#X connect 79 0 82 0;
#X connect 80 0 81 0;
#X connect 81 0 84 0;
#X connect 82 0 84 0;
#X connect 83 0 70 0;
#X connect 83 0 70 1;
#X connect 84 0 63 0;
#X connect 89 0 63 1;
#X connect 90 0 65 0;
#X connect 91 0 35 0;
#X connect 92 0 93 0;
#X connect 93 0 94 0;
#X connect 94 0 95 1;
#X connect 95 0 101 0;
#X connect 96 0 97 0;
#X connect 96 0 95 0;
#X connect 97 0 100 0;
#X connect 98 0 100 0;
#X connect 99 0 102 0;
#X connect 100 0 99 0;
#X connect 101 0 102 0;
#X connect 102 0 103 0;
#X connect 102 0 104 0;
#X connect 103 0 102 1;
#X connect 104 0 105 0;
#X connect 105 0 106 0;
#X connect 106 0 107 0;
#X connect 107 0 156 0;
#X connect 109 0 110 0;
#X connect 110 0 111 0;
#X connect 111 0 112 0;
#X connect 112 0 297 0;
#X connect 113 0 111 1;
#X connect 114 0 115 0;
#X connect 115 0 116 0;
#X connect 116 0 297 0;
#X connect 117 0 115 1;
#X connect 118 0 119 0;
#X connect 119 0 120 0;
#X connect 120 0 297 0;
#X connect 121 0 119 1;
#X connect 122 0 123 0;
#X connect 123 0 124 0;
#X connect 124 0 297 0;
#X connect 125 0 123 1;
#X connect 126 0 127 0;
#X connect 127 0 128 0;
#X connect 128 0 297 0;
#X connect 129 0 127 1;
#X connect 130 0 114 0;
#X connect 131 0 118 0;
#X connect 132 0 122 0;
#X connect 133 0 126 0;
#X connect 134 0 135 0;
#X connect 135 0 136 0;
#X connect 136 0 297 0;
#X connect 137 0 135 1;
#X connect 138 0 139 0;
#X connect 139 0 140 0;
#X connect 140 0 297 0;
#X connect 141 0 139 1;
#X connect 142 0 143 0;
#X connect 143 0 144 0;
#X connect 144 0 297 0;
#X connect 145 0 143 1;
#X connect 146 0 134 0;
#X connect 147 0 138 0;
#X connect 148 0 142 0;
#X connect 151 0 175 0;
#X connect 151 0 302 0;
#X connect 153 0 154 0;
#X connect 154 0 175 1;
#X connect 155 0 352 0;
#X connect 155 0 412 0;
#X connect 156 1 157 0;
#X connect 156 2 159 0;
#X connect 156 3 161 0;
#X connect 156 4 163 0;
#X connect 156 5 165 0;
#X connect 156 6 166 0;
#X connect 156 7 167 0;
#X connect 156 8 168 0;
#X connect 157 0 158 0;
#X connect 159 0 160 0;
#X connect 161 0 162 0;
#X connect 163 0 164 0;
#X connect 165 0 169 0;
#X connect 166 0 170 0;
#X connect 167 0 171 0;
#X connect 168 0 172 0;
#X connect 175 0 152 0;
#X connect 175 0 152 1;
#X connect 177 0 178 0;
#X connect 178 0 179 0;
#X connect 179 0 180 0;
#X connect 180 0 298 0;
#X connect 181 0 179 1;
#X connect 182 0 183 0;
#X connect 183 0 184 0;
#X connect 184 0 298 0;
#X connect 185 0 183 1;
#X connect 186 0 187 0;
#X connect 187 0 188 0;
#X connect 188 0 298 0;
#X connect 189 0 187 1;
#X connect 190 0 191 0;
#X connect 191 0 192 0;
#X connect 192 0 298 0;
#X connect 193 0 191 1;
#X connect 194 0 195 0;
#X connect 195 0 196 0;
#X connect 196 0 298 0;
#X connect 197 0 195 1;
#X connect 198 0 182 0;
#X connect 199 0 186 0;
#X connect 200 0 190 0;
#X connect 201 0 194 0;
#X connect 202 0 203 0;
#X connect 203 0 204 0;
#X connect 204 0 298 0;
#X connect 205 0 203 1;
#X connect 206 0 207 0;
#X connect 207 0 208 0;
#X connect 208 0 298 0;
#X connect 209 0 207 1;
#X connect 210 0 211 0;
#X connect 211 0 212 0;
#X connect 212 0 298 0;
#X connect 213 0 211 1;
#X connect 214 0 202 0;
#X connect 215 0 206 0;
#X connect 216 0 210 0;
#X connect 217 0 218 0;
#X connect 218 0 219 0;
#X connect 219 0 220 0;
#X connect 220 0 299 0;
#X connect 221 0 219 1;
#X connect 222 0 223 0;
#X connect 223 0 224 0;
#X connect 224 0 299 0;
#X connect 225 0 223 1;
#X connect 226 0 227 0;
#X connect 227 0 228 0;
#X connect 228 0 299 0;
#X connect 229 0 227 1;
#X connect 230 0 231 0;
#X connect 231 0 232 0;
#X connect 232 0 299 0;
#X connect 233 0 231 1;
#X connect 234 0 235 0;
#X connect 235 0 236 0;
#X connect 236 0 299 0;
#X connect 237 0 235 1;
#X connect 238 0 222 0;
#X connect 239 0 226 0;
#X connect 240 0 230 0;
#X connect 241 0 234 0;
#X connect 242 0 243 0;
#X connect 243 0 244 0;
#X connect 244 0 299 0;
#X connect 245 0 243 1;
#X connect 246 0 247 0;
#X connect 247 0 248 0;
#X connect 248 0 299 0;
#X connect 249 0 247 1;
#X connect 250 0 251 0;
#X connect 251 0 252 0;
#X connect 252 0 299 0;
#X connect 253 0 251 1;
#X connect 254 0 242 0;
#X connect 255 0 246 0;
#X connect 256 0 250 0;
#X connect 257 0 258 0;
#X connect 258 0 259 0;
#X connect 259 0 260 0;
#X connect 260 0 300 0;
#X connect 261 0 259 1;
#X connect 262 0 263 0;
#X connect 263 0 264 0;
#X connect 264 0 300 0;
#X connect 265 0 263 1;
#X connect 266 0 267 0;
#X connect 267 0 268 0;
#X connect 268 0 300 0;
#X connect 269 0 267 1;
#X connect 270 0 271 0;
#X connect 271 0 272 0;
#X connect 272 0 300 0;
#X connect 273 0 271 1;
#X connect 274 0 275 0;
#X connect 275 0 276 0;
#X connect 276 0 300 0;
#X connect 277 0 275 1;
#X connect 278 0 262 0;
#X connect 279 0 266 0;
#X connect 280 0 270 0;
#X connect 281 0 274 0;
#X connect 282 0 283 0;
#X connect 283 0 284 0;
#X connect 284 0 300 0;
#X connect 285 0 283 1;
#X connect 286 0 287 0;
#X connect 287 0 288 0;
#X connect 288 0 300 0;
#X connect 289 0 287 1;
#X connect 290 0 291 0;
#X connect 291 0 292 0;
#X connect 292 0 300 0;
#X connect 293 0 291 1;
#X connect 294 0 282 0;
#X connect 295 0 286 0;
#X connect 296 0 290 0;
#X connect 301 0 155 0;
#X connect 307 0 312 0;
#X connect 307 0 316 0;
#X connect 309 0 310 0;
#X connect 310 0 312 1;
#X connect 311 0 373 0;
#X connect 311 0 414 0;
#X connect 312 0 308 0;
#X connect 312 0 308 1;
#X connect 314 0 401 0;
#X connect 315 0 407 0;
#X connect 319 0 311 0;
#X connect 320 0 325 0;
#X connect 320 0 327 0;
#X connect 322 0 323 0;
#X connect 323 0 325 1;
#X connect 324 0 393 0;
#X connect 324 0 415 0;
#X connect 325 0 321 0;
#X connect 325 0 321 1;
#X connect 326 0 324 0;
#X connect 328 0 333 0;
#X connect 328 0 334 0;
#X connect 330 0 331 0;
#X connect 331 0 333 1;
#X connect 332 0 413 0;
#X connect 333 0 329 0;
#X connect 333 0 329 1;
#X connect 335 0 332 0;
#X connect 340 0 328 0;
#X connect 341 0 347 0;
#X connect 342 0 343 0;
#X connect 343 0 344 0;
#X connect 344 0 345 1;
#X connect 345 0 151 0;
#X connect 346 0 348 0;
#X connect 347 0 342 0;
#X connect 348 0 349 0;
#X connect 349 0 350 0;
#X connect 350 0 345 0;
#X connect 351 0 346 1;
#X connect 351 0 347 1;
#X connect 352 0 353 0;
#X connect 352 0 354 0;
#X connect 353 0 352 1;
#X connect 354 0 355 0;
#X connect 355 0 356 0;
#X connect 356 0 357 0;
#X connect 357 0 358 0;
#X connect 358 0 359 0;
#X connect 359 0 346 0;
#X connect 359 0 341 0;
#X connect 360 0 96 0;
#X connect 361 0 367 0;
#X connect 362 0 366 0;
#X connect 362 0 418 0;
#X connect 363 0 364 0;
#X connect 364 0 307 0;
#X connect 365 0 363 0;
#X connect 366 0 365 1;
#X connect 367 0 363 1;
#X connect 368 0 365 0;
#X connect 368 0 361 0;
#X connect 369 0 362 0;
#X connect 370 0 368 0;
#X connect 373 0 374 0;
#X connect 373 0 375 0;
#X connect 374 0 373 1;
#X connect 375 0 376 0;
#X connect 376 0 377 0;
#X connect 377 0 378 0;
#X connect 378 0 379 0;
#X connect 379 0 380 0;
#X connect 380 0 370 0;
#X connect 381 0 387 0;
#X connect 382 0 386 0;
#X connect 382 0 475 0;
#X connect 383 0 384 0;
#X connect 384 0 320 0;
#X connect 385 0 383 0;
#X connect 386 0 385 1;
#X connect 387 0 383 1;
#X connect 388 0 385 0;
#X connect 388 0 381 0;
#X connect 389 0 382 0;
#X connect 390 0 388 0;
#X connect 393 0 394 0;
#X connect 393 0 395 0;
#X connect 394 0 393 1;
#X connect 395 0 396 0;
#X connect 396 0 397 0;
#X connect 397 0 398 0;
#X connect 398 0 399 0;
#X connect 399 0 400 0;
#X connect 400 0 390 0;
#X connect 402 0 316 0;
#X connect 403 0 327 0;
#X connect 404 0 302 0;
#X connect 405 0 334 0;
#X connect 407 0 314 0;
#X connect 408 0 320 1;
#X connect 409 0 307 1;
#X connect 410 0 328 1;
#X connect 411 0 151 1;
#X connect 412 0 411 0;
#X connect 413 0 410 0;
#X connect 414 0 409 0;
#X connect 415 0 408 0;
#X connect 416 0 362 0;
#X connect 416 0 418 0;
#X connect 417 0 382 0;
#X connect 417 0 475 0;
#X connect 418 0 361 1;
#X connect 419 0 420 0;
#X connect 420 0 421 0;
#X connect 421 0 422 0;
#X connect 422 0 459 0;
#X connect 423 0 421 1;
#X connect 424 0 425 0;
#X connect 425 0 426 0;
#X connect 426 0 459 0;
#X connect 427 0 425 1;
#X connect 428 0 429 0;
#X connect 429 0 430 0;
#X connect 430 0 459 0;
#X connect 431 0 429 1;
#X connect 432 0 433 0;
#X connect 433 0 434 0;
#X connect 434 0 459 0;
#X connect 435 0 433 1;
#X connect 436 0 437 0;
#X connect 437 0 438 0;
#X connect 438 0 459 0;
#X connect 439 0 437 1;
#X connect 440 0 424 0;
#X connect 441 0 428 0;
#X connect 442 0 432 0;
#X connect 443 0 436 0;
#X connect 444 0 445 0;
#X connect 445 0 446 0;
#X connect 446 0 459 0;
#X connect 447 0 445 1;
#X connect 448 0 449 0;
#X connect 449 0 450 0;
#X connect 450 0 459 0;
#X connect 451 0 449 1;
#X connect 452 0 453 0;
#X connect 453 0 454 0;
#X connect 454 0 459 0;
#X connect 455 0 453 1;
#X connect 456 0 444 0;
#X connect 457 0 448 0;
#X connect 458 0 452 0;
#X connect 463 0 464 0;
#X connect 464 0 466 1;
#X connect 465 0 476 0;
#X connect 465 0 473 0;
#X connect 466 0 462 0;
#X connect 466 0 462 1;
#X connect 469 0 467 0;
#X connect 470 0 472 0;
#X connect 471 0 472 1;
#X connect 472 0 466 0;
#X connect 472 0 467 0;
#X connect 473 0 471 0;
#X connect 475 0 381 1;
#X connect 476 0 470 0;
#X connect 479 0 480 0;
#X connect 480 0 491 0;
#X connect 481 0 465 0;
#X connect 482 0 483 0;
#X connect 483 0 487 0;
#X connect 484 0 485 0;
#X connect 485 0 486 0;
#X connect 486 0 322 0;
#X connect 487 0 153 0;
#X connect 488 0 489 0;
#X connect 489 0 490 0;
#X connect 490 0 330 0;
#X connect 491 0 463 0;
#X connect 492 0 493 0;
#X connect 493 0 494 0;
#X connect 494 0 309 0;
